<svg xmlns="http://www.w3.org/2000/svg" xmlns:xlink="http://www.w3.org/1999/xlink" viewBox="0 0 80 78.44"><defs><style>.cls-1{fill:#731c16;}.cls-2{fill:url(#linear-gradient);}</style><linearGradient id="linear-gradient" x1="18" y1="51.14" x2="62" y2="51.14" gradientUnits="userSpaceOnUse"><stop offset="0" stop-color="#eb5f55"/><stop offset="1" stop-color="#ad2920"/></linearGradient></defs><title>Asset 5</title><g id="Layer_2" data-name="Layer 2"><g id="Layer_2-2" data-name="Layer 2"><path class="cls-1" d="M64.62,0H15.38A15.39,15.39,0,0,0,0,15.38V53.65A15.39,15.39,0,0,0,15.38,69H20a3,3,0,0,0,3-3v-3.5a3,3,0,0,0-3-3H15.38a6,6,0,0,1-6-6V15.38a6,6,0,0,1,6-6H64.62a6,6,0,0,1,6,6V53.65a6,6,0,0,1-6,6H60a3,3,0,0,0-3,3v3.5a3,3,0,0,0,3,3h4.66A15.39,15.39,0,0,0,80,53.65V15.38A15.39,15.39,0,0,0,64.62,0Z"/><path class="cls-2" d="M62,42.33l-.65-.09-.77-1.18q-2-4.5-4-9.19L56,30.46c.18-.26.36-.5.51-.76a2.25,2.25,0,0,0-.56-2.9,2.09,2.09,0,0,0-3,.4,1.53,1.53,0,0,1-.57.53,1.9,1.9,0,0,1-1,.27c-.64,0-4,0-8.9,0V23.85h-5V28c-4.85,0-8.26,0-8.9,0a1.9,1.9,0,0,1-1-.27A1.53,1.53,0,0,1,27,27.2a2.09,2.09,0,0,0-3-.4,2.25,2.25,0,0,0-.56,2.9c.15.26.33.5.51.76l-.58,1.41q-1.94,4.68-4,9.19l-.77,1.18-.65.09a5.57,5.57,0,0,0,2,5.07,9,9,0,0,0,10.53,0,5.56,5.56,0,0,0,2.1-5.19H32l-.62-.93c-1.24-2.81-2.48-5.66-3.69-8.56-.32-.75-.63-1.51-.94-2.26a1.82,1.82,0,0,1,.9-1,1.73,1.73,0,0,1,1.17-.13l8.71-.11v30.6a9.5,9.5,0,1,0,5,0V29.18l8.71.11a1.73,1.73,0,0,1,1.17.13,1.82,1.82,0,0,1,.9,1c-.31.75-.62,1.51-.94,2.26-1.21,2.9-2.45,5.75-3.69,8.56l-.62.93h-.75a5.56,5.56,0,0,0,2.1,5.19,9,9,0,0,0,10.53,0A5.57,5.57,0,0,0,62,42.33Zm-31.47-.75a3.36,3.36,0,0,1,.13.61H20.14a5.85,5.85,0,0,1,.23-.83c1.4-3.28,2.8-6.54,4.24-9.8a1.39,1.39,0,0,1,.72-.75c.47-.17.62.3.78.65Q28.3,36.52,30.48,41.58Zm18.91.61a3.36,3.36,0,0,1,.13-.61q2.19-5.07,4.37-10.12c.16-.35.31-.82.78-.65a1.39,1.39,0,0,1,.72.75c1.44,3.26,2.84,6.52,4.24,9.8a5.85,5.85,0,0,1,.23.83Z"/></g></g></svg>