<svg xmlns="http://www.w3.org/2000/svg" xmlns:xlink="http://www.w3.org/1999/xlink" viewBox="0 0 57.1 80"><defs><style>.cls-1{fill:#731c16;}.cls-2{fill:url(#linear-gradient);}</style><linearGradient id="linear-gradient" x1="19.05" y1="9.5" x2="38.05" y2="9.5" gradientUnits="userSpaceOnUse"><stop offset="0" stop-color="#eb5f55"/><stop offset="1" stop-color="#ad2920"/></linearGradient></defs><title>Asset 8</title><g id="Layer_2" data-name="Layer 2"><g id="Layer_2-2" data-name="Layer 2"><path class="cls-1" d="M57.09,28.75V15.87a1.55,1.55,0,0,0-1.84-1.52h0C40.84,17,30.35,29.92,30.28,45V56.89c0,4.1,0,8.2,0,12.3,0,1.79-.49,2.84-.94,3.23a.78.78,0,0,1-.66.18c-1.39-.2-2-.76-1.91-3.53.13-5.22.14-9.92,0-14.38,0-1.27-.06-2.54-.08-3.82a81.41,81.41,0,0,0-.88-13c-2.09-11.76-12-21.4-24-23.44h0A1.54,1.54,0,0,0,0,15.93v7.21c0,5.49,0,11,0,16.44C0,50.07,5.68,58.33,15.52,62.27c1,.4,2,.82,3,1.26l.55.23c0,.48,0,1,0,1.43,0,1.78,0,3.45,0,5.16.18,5.46,4.29,9.65,9.4,9.65h.21a9.45,9.45,0,0,0,9.11-9.52c0-1.7,0-3.4,0-5.2,0-.51,0-1,0-1.56l.2-.07,2.28-.83C51.47,58.6,57.12,50.4,57.1,38.42Q57.09,33.59,57.09,28.75ZM20.63,55.27a1.56,1.56,0,0,1-2.07,1.46A17.54,17.54,0,0,1,6.69,41.08c-.18-5.23-.09-10.47-.06-16.24a1.55,1.55,0,0,1,2.42-1.28c7.31,5.13,11.32,11.58,11.55,20.37C20.7,47.7,20.64,51.47,20.63,55.27ZM50,43.36C49.13,50,44.78,54.27,38.16,57.22A1.55,1.55,0,0,1,36,55.72c.32-6.17.33-11.69,1.28-17,1.12-6.38,4.81-11.2,10.5-15A1.56,1.56,0,0,1,50.17,25C50.28,31.45,50.7,37.47,50,43.36Z"/><circle class="cls-2" cx="28.55" cy="9.5" r="9.5"/></g></g></svg>