<svg xmlns="http://www.w3.org/2000/svg" xmlns:xlink="http://www.w3.org/1999/xlink" viewBox="0 0 59.15 81"><defs><style>.cls-1{fill:#f2f5f4;}.cls-2{fill:#731c16;}.cls-3{fill:url(#linear-gradient);}.cls-4{fill:url(#linear-gradient-2);}</style><linearGradient id="linear-gradient" x1="26.37" y1="34.48" x2="32.78" y2="34.48" gradientUnits="userSpaceOnUse"><stop offset="0" stop-color="#eb5f55"/><stop offset="1" stop-color="#ad2920"/></linearGradient><linearGradient id="linear-gradient-2" x1="26.37" y1="46.52" x2="32.78" y2="46.52" xlink:href="#linear-gradient"/></defs><title>Asset 12</title><g id="Layer_2" data-name="Layer 2"><g id="Layer_2-2" data-name="Layer 2"><path class="cls-1" d="M29.51,40.56h.13a.49.49,0,0,1,0-.12Z"/><path class="cls-1" d="M29.58,40.49v0h0Z"/><path class="cls-1" d="M29.63,40.56a.49.49,0,0,1,0-.12h-.13Z"/><path class="cls-1" d="M29.64,40.44h-.13v.12Z"/><path class="cls-1" d="M29.58,40.5h0v0Z"/><path class="cls-2" d="M32.75,55.11v18.2A7.61,7.61,0,0,1,32,76.63l-.05.09A7.76,7.76,0,0,1,25.06,81H23.64a8.08,8.08,0,0,1-8.07-8.07V65.37l-2.24-.79c-2.27-.8-4.62-1.63-6.93-2.39-3.23-1-5.13-2.86-6-5.72a7.32,7.32,0,0,1,2.1-8c3.28-2.79,6.74-5.45,10.1-8-3.36-2.58-6.82-5.25-10.09-8a7.31,7.31,0,0,1-2.11-8c.87-2.85,2.77-4.67,6-5.73C8.67,17.85,11,17,13.21,16.25l2.36-.83V9.71a.89.89,0,0,1,.89-.89h4.62a.88.88,0,0,1,.88.89v9.8a.87.87,0,0,1-.6.83l-5.13,1.74c-2.49.85-4.93,1.66-7.36,2.45-1.37.45-2.11.75-2.25,1.91-.1,1,.42,1.44,1.42,2.2,2.66,2,5.2,4.06,7.66,6l2.42,2,.19.52,0,6.6-.28.48-2.21,1.77c-2.48,2-5,4.06-7.66,6L8,52.16c-1,.76-1.52,1.2-1.41,2.19.14,1.16.88,1.46,2.2,1.89,2.48.81,4.92,1.62,7.41,2.47l5.13,1.74a.88.88,0,0,1,.6.84V72.93a1.68,1.68,0,0,0,1.68,1.68h1a1.69,1.69,0,0,0,1.69-1.69V55.11a.89.89,0,0,1,.89-.88h4.62A.89.89,0,0,1,32.75,55.11Z"/><path class="cls-2" d="M58.73,56.68a8.16,8.16,0,0,1-2.11,3.54,10.09,10.09,0,0,1-3.88,2.19c-2.28.74-4.59,1.55-6.82,2.34l-2.36.83v5.71a.89.89,0,0,1-.89.89H38.05a.89.89,0,0,1-.88-.89v-9.8a.88.88,0,0,1,.6-.83l5.13-1.74c2.49-.85,4.93-1.66,7.36-2.45,1.37-.45,2.12-.75,2.25-1.91.1-1-.41-1.44-1.42-2.2-2.66-2-5.2-4.06-7.66-6l-2.42-2-.19-.52,0-6.6.19-.41.09-.07,2.59-2.07c2.36-1.9,4.81-3.86,7.28-5.74l.08-.07c1-.76,1.52-1.2,1.41-2.19-.13-1.16-.89-1.46-2.2-1.89-2.48-.81-4.91-1.62-7.4-2.47l-1.32-.44-3.81-1.29a.88.88,0,0,1-.61-.84V8.08A1.68,1.68,0,0,0,35.49,6.4h-1a1.68,1.68,0,0,0-1.68,1.68V25.89a.89.89,0,0,1-.89.88H27.27a.89.89,0,0,1-.89-.88V7.69a7.54,7.54,0,0,1,.71-3.2V4.4l.09-.1A7.75,7.75,0,0,1,34.08,0h1.41a8.09,8.09,0,0,1,8.08,8.08v7.55l2.11.75c2.31.81,4.7,1.66,7.06,2.43,3.23,1.05,5.13,2.87,6,5.72a7.31,7.31,0,0,1-2.11,8c-3.36,2.86-6.93,5.61-10.09,8,3.35,2.59,6.82,5.26,10.09,8A7.32,7.32,0,0,1,58.73,56.68Z"/><circle class="cls-3" cx="29.57" cy="34.48" r="3.21"/><circle class="cls-4" cx="29.57" cy="46.52" r="3.21"/></g></g></svg>