<svg xmlns="http://www.w3.org/2000/svg" xmlns:xlink="http://www.w3.org/1999/xlink" viewBox="0 0 80 80"><defs><style>.cls-1{fill:#731c16;}.cls-2{fill:url(#linear-gradient);}</style><linearGradient id="linear-gradient" x1="17" y1="40.28" x2="63" y2="40.28" gradientUnits="userSpaceOnUse"><stop offset="0" stop-color="#eb5f55"/><stop offset="1" stop-color="#ad2920"/></linearGradient></defs><title>Asset 7</title><g id="Layer_2" data-name="Layer 2"><g id="Layer_2-2" data-name="Layer 2"><path class="cls-1" d="M59.68,11.84l1.57-1.57a2.88,2.88,0,0,0-.57-4.51A40,40,0,0,0,5.75,60.68a2.89,2.89,0,0,0,4.52.57l1.57-1.57a2.89,2.89,0,0,0,.44-3.49A32.1,32.1,0,0,1,56.19,12.28,2.87,2.87,0,0,0,59.68,11.84Zm10.05,6.92-1.57,1.57a2.87,2.87,0,0,0-.44,3.49A32.1,32.1,0,0,1,23.81,67.73a2.87,2.87,0,0,0-3.49.44l-1.56,1.56a2.89,2.89,0,0,0,.56,4.52A40,40,0,0,0,74.25,19.32,2.9,2.9,0,0,0,69.73,18.76Z" transform="translate(0 0)"/><circle class="cls-2" cx="40" cy="40.28" r="23"/></g></g></svg>