<svg xmlns="http://www.w3.org/2000/svg" xmlns:xlink="http://www.w3.org/1999/xlink" viewBox="0 0 71.11 83.19"><defs><style>.cls-1{fill:url(#linear-gradient);}.cls-2{fill:#731c16;}</style><linearGradient id="linear-gradient" x1="13.56" y1="27.3" x2="57.55" y2="27.3" gradientUnits="userSpaceOnUse"><stop offset="0" stop-color="#eb5f55"/><stop offset="1" stop-color="#ad2920"/></linearGradient></defs><title>Asset 15</title><g id="Layer_2" data-name="Layer 2"><g id="Layer_2-2" data-name="Layer 2"><path class="cls-1" d="M57.51,18.48l-.65-.09-.77-1.18q-2-4.5-4-9.19l-.58-1.41c.18-.26.36-.5.51-.76A2.25,2.25,0,0,0,51.49,3a2.09,2.09,0,0,0-3,.4,1.53,1.53,0,0,1-.57.53,1.9,1.9,0,0,1-1,.27c-.64,0-4.05,0-8.9,0V0h-5V4.16c-4.85,0-8.26,0-8.9,0a1.9,1.9,0,0,1-1-.27,1.53,1.53,0,0,1-.57-.53,2.09,2.09,0,0,0-3-.4,2.25,2.25,0,0,0-.56,2.9c.15.26.33.5.51.76L19,8q-1.93,4.68-4,9.19l-.77,1.18-.65.09a5.57,5.57,0,0,0,2,5.07,9,9,0,0,0,10.53,0,5.56,5.56,0,0,0,2.1-5.19h-.75l-.62-.93c-1.24-2.81-2.48-5.66-3.69-8.56-.32-.75-.63-1.51-.94-2.26a1.82,1.82,0,0,1,.9-1,1.73,1.73,0,0,1,1.17-.13l8.71-.11v30.6a9.5,9.5,0,1,0,5,0V5.33l8.71.11a1.73,1.73,0,0,1,1.17.13,1.82,1.82,0,0,1,.9,1c-.31.75-.62,1.51-.94,2.26-1.21,2.9-2.45,5.75-3.69,8.56l-.62.93h-.75a5.56,5.56,0,0,0,2.1,5.19,9,9,0,0,0,10.53,0A5.57,5.57,0,0,0,57.51,18.48ZM26,17.73a3.36,3.36,0,0,1,.13.61H15.7a5.85,5.85,0,0,1,.23-.83c1.4-3.28,2.8-6.54,4.24-9.8A1.39,1.39,0,0,1,20.89,7c.47-.17.62.3.78.65Q23.86,12.67,26,17.73ZM45,18.34a3.36,3.36,0,0,1,.13-.61q2.19-5.07,4.37-10.12c.16-.35.31-.82.78-.65a1.39,1.39,0,0,1,.72.75c1.44,3.26,2.84,6.52,4.24,9.8a5.85,5.85,0,0,1,.23.83Z"/><path class="cls-2" d="M71.11,27.84v.25L71,62.54A2.87,2.87,0,0,1,69.49,65L62,69.2,44.45,78.91l-6.63,3.67a4.88,4.88,0,0,1-4.77,0l-6.6-3.71L9,69.05,1.49,64.84A2.9,2.9,0,0,1,0,62.32L.11,27.73h.5l8.5,0H13.8a1.82,1.82,0,0,1,1.81,1.82l0,5.05a1.81,1.81,0,0,1-1.82,1.81H10.9a1.81,1.81,0,0,0-1.82,1.81L9,58a1.82,1.82,0,0,0,.92,1.58L34.58,73.36a1.83,1.83,0,0,0,1.77,0L61.08,59.68A1.82,1.82,0,0,0,62,58.1l.06-19.75a1.81,1.81,0,0,0-1.82-1.82H57.34a1.83,1.83,0,0,1-1.82-1.82V29.66a1.83,1.83,0,0,1,1.82-1.82H71.11Z"/></g></g></svg>