<svg xmlns="http://www.w3.org/2000/svg" width="18" height="15" viewBox="0 0 18 15">
    <g fill="none" fill-rule="evenodd">
        <path d="M-9-11h35v35H-9z"/>
        <path fill="#D04242" d="M15.282 2.4A3.588 3.588 0 0 0 16.788.401a6.646 6.646 0 0 1-2.176.877A3.336 3.336 0 0 0 12.11.136c-1.892 0-3.426 1.619-3.426 3.615 0 .283.029.559.088.823C5.924 4.423 3.4 2.985 1.708.797a3.758 3.758 0 0 0-.463 1.818c0 1.253.605 2.36 1.524 3.01a3.304 3.304 0 0 1-1.553-.453v.045c0 1.752 1.18 3.213 2.75 3.544a3.19 3.19 0 0 1-.904.127c-.22 0-.436-.022-.644-.064.436 1.435 1.701 2.482 3.201 2.51A6.653 6.653 0 0 1 .545 12.83 9.345 9.345 0 0 0 5.8 14.455c6.304 0 9.75-5.508 9.75-10.285 0-.157-.002-.313-.009-.467a7.164 7.164 0 0 0 1.71-1.872 6.568 6.568 0 0 1-1.968.569z"/>
    </g>
</svg>
