<?xml version="1.0" encoding="UTF-8"?>
<!DOCTYPE svg PUBLIC "-//W3C//DTD SVG 1.1//EN" "http://www.w3.org/Graphics/SVG/1.1/DTD/svg11.dtd">
<svg version="1.1" xmlns="http://www.w3.org/2000/svg" xmlns:xlink="http://www.w3.org/1999/xlink" x="0" y="0" width="682.605" height="91.898" viewBox="0, 0, 682.605, 91.898">
  <g id="Shape" transform="translate(-33.697, -204.051)">
    <g id="Text_as_shape">
      <path d="M218.015,212.373 L229.073,212.373 L229.073,277.391 L243.715,277.391 L243.715,287.63 L218.015,287.63 z" fill="#373737"/>
      <path d="M259.581,287.63 L270.946,212.373 L284.462,212.373 L295.827,287.63 L285.076,287.63 L283.028,272.271 L272.379,272.271 L270.332,287.63 z M278.318,236.844 L278.011,234.899 L277.397,234.899 L277.089,236.844 L273.915,260.599 L281.492,260.599 z" fill="#373737"/>
      <path d="M327.973,287.63 L319.372,287.63 L309.235,212.373 L319.474,212.373 L323.877,251.486 L324.082,253.943 L324.901,253.943 L325.208,251.486 L329.918,212.373 L337.905,212.373 L342.615,251.486 L342.922,253.943 L343.741,253.943 L343.946,251.486 L348.349,212.373 L358.588,212.373 L348.451,287.63 L339.85,287.63 L334.731,251.998 L334.116,247.595 L333.707,247.595 L333.092,251.998 z" fill="#373737"/>
      <path d="M395.648,232.544 C395.648,230.086 395.546,227.322 394.829,225.172 C394.112,223.124 392.986,221.69 391.246,221.69 C388.379,221.793 387.457,224.762 387.457,229.165 C387.457,231.725 388.583,234.387 390.222,237.254 C391.86,240.121 394.01,243.09 396.16,246.264 C398.72,250.053 401.28,253.943 403.225,257.732 C405.171,261.52 406.502,265.411 406.502,269.507 C406.502,274.524 405.683,279.234 403.328,282.715 C400.973,286.197 397.184,288.449 391.143,288.449 C384.078,288.449 380.085,285.787 377.832,281.691 C375.58,277.596 375.068,272.169 375.068,266.538 L385.921,265.514 C385.921,268.688 386.024,271.862 386.843,274.217 C387.559,276.674 388.788,278.312 391.143,278.312 C394.42,278.312 395.648,274.831 395.648,270.019 C395.648,267.561 394.42,264.694 392.781,261.725 C391.86,260.292 390.938,258.756 389.914,257.22 C387.764,254.148 385.409,250.667 382.952,246.878 C380.495,243.09 378.651,239.199 377.525,235.206 C376.911,233.26 376.604,231.213 376.604,229.165 C376.604,225.069 377.525,220.666 379.88,217.287 C382.235,214.011 385.819,211.656 391.041,211.554 C397.696,211.451 401.587,214.216 403.737,218.209 C405.887,222.305 406.502,227.322 406.502,231.52 z" fill="#373737"/>
      <path d="M424.415,276.265 L435.166,276.265 L435.166,287.63 L424.415,287.63 z" fill="#FF0000"/>
      <path d="M452.261,287.63 L463.626,212.373 L477.142,212.373 L488.507,287.63 L477.756,287.63 L475.708,272.271 L465.06,272.271 L463.012,287.63 z M470.998,236.844 L470.691,234.899 L470.077,234.899 L469.77,236.844 L466.596,260.599 L474.172,260.599 z" fill="#373737"/>
      <path d="M533.349,223.738 L518.093,223.738 L518.093,243.5 L528.332,243.5 L528.332,254.865 L518.093,254.865 L518.093,287.63 L507.035,287.63 L507.035,212.373 L533.349,212.373 z" fill="#373737"/>
      <path d="M571.025,287.63 L565.291,255.889 L562.321,255.889 L562.321,287.63 L551.263,287.63 L551.263,212.373 L562.321,212.373 C575.53,212.373 581.161,219.847 581.161,234.08 C581.161,241.554 579.216,248.312 575.018,251.179 L582.083,287.63 z M562.321,245.65 C563.857,245.65 565.905,245.445 567.543,244.011 C569.181,242.578 570.513,239.813 570.513,234.489 C570.513,229.165 569.181,226.298 567.543,224.864 C565.905,223.431 563.857,223.329 562.321,223.329 z" fill="#373737"/>
      <path d="M601.634,212.373 L612.693,212.373 L612.693,287.63 L601.634,287.63 z" fill="#373737"/>
      <path d="M663.064,261.828 L663.064,272.169 C662.962,275.241 662.347,278.005 661.221,280.36 C660.3,282.408 658.866,284.354 656.818,285.889 C654.771,287.528 652.006,288.449 648.32,288.449 C644.634,288.449 641.767,287.528 639.719,285.889 C637.671,284.354 636.34,282.408 635.419,280.36 C634.292,278.005 633.678,275.241 633.576,272.169 L633.576,227.834 C633.678,224.864 634.292,222.1 635.419,219.745 C636.34,217.697 637.671,215.649 639.719,214.113 C641.767,212.577 644.634,211.554 648.32,211.554 C652.006,211.554 654.771,212.577 656.818,214.113 C658.866,215.649 660.3,217.697 661.221,219.745 C662.347,222.1 662.962,224.864 663.064,227.834 L663.064,238.175 L652.723,238.175 L652.723,227.834 C652.723,225.786 652.211,224.352 651.084,223.124 C650.573,222.612 649.651,222.305 648.525,222.305 C646.579,222.305 645.658,223.738 645.146,225.069 C644.839,225.888 644.736,226.81 644.634,227.834 L644.634,272.169 C644.736,274.319 645.351,275.753 646.374,276.879 C646.886,277.391 647.603,277.698 648.525,277.698 C650.88,277.698 651.801,276.469 652.313,274.934 C652.62,274.217 652.723,273.295 652.723,272.169 L652.723,261.828 z" fill="#373737"/>
      <path d="M680.056,287.63 L691.422,212.373 L704.937,212.373 L716.303,287.63 L705.552,287.63 L703.504,272.271 L692.855,272.271 L690.807,287.63 z M698.794,236.844 L698.487,234.899 L697.872,234.899 L697.565,236.844 L694.391,260.599 L701.968,260.599 z" fill="#373737"/>
    </g>
    <path d="M169.648,295.16 C167.248,294.748 157.776,293.907 148.6,293.291 C116.253,291.12 100.902,291.258 90.592,293.814 C86.571,294.811 84.768,294.965 80.325,294.692 C76.346,294.447 63.526,293.098 61.429,292.703 C61.342,292.687 61.4,292.444 61.558,292.165 C62.16,291.1 66.934,290.944 72.877,291.796 C81.387,293.015 83.503,292.915 90.417,290.967 C94.315,289.869 98.85,289.064 103.147,288.707 C106.819,288.401 109.96,287.97 110.128,287.748 C110.296,287.526 111.051,285.798 111.806,283.908 C113.025,280.86 113.179,279.768 113.179,274.214 C113.179,266.874 112.77,265.506 108.924,259.976 C106.066,255.868 104.245,254.345 101.372,253.662 L99.576,253.234 L101.028,252.573 L102.481,251.912 L101.285,251.08 C100.627,250.623 97.086,249.156 93.415,247.82 C85.069,244.781 83.296,243.814 81.586,241.365 C80.036,239.143 77.727,237.701 75.724,237.701 C74.974,237.701 73.913,237.339 73.365,236.898 C72.463,236.171 72.237,236.251 70.985,237.739 C69.578,239.412 68.32,239.834 67.748,238.823 C67.251,237.945 65.438,238.165 65.438,239.103 C65.438,240.666 63.029,240.061 61.665,238.157 C60.57,236.628 60.267,236.475 59.574,237.103 C58.905,237.71 58.616,237.704 57.914,237.068 C56.979,236.222 52.187,236.311 51.346,237.19 C50.335,238.248 48.562,237.72 47.88,236.158 C47.12,234.416 44.704,233.812 42.845,234.899 C41.918,235.441 41.481,235.249 39.74,233.53 C38.557,232.363 37.181,231.53 36.432,231.53 C35.686,231.53 35.15,231.207 35.15,230.758 C35.15,230.333 34.792,229.66 34.354,229.263 C33.911,228.861 33.627,227.897 33.713,227.091 C33.846,225.836 34.109,225.642 35.664,225.654 C36.652,225.662 38.09,225.855 38.861,226.082 C40.077,226.442 40.304,226.309 40.59,225.062 C41.065,222.995 46.686,220.26 50.181,220.395 C52.535,220.487 52.839,220.339 54.346,218.378 C55.913,216.339 56.071,216.27 58.78,216.464 C61.444,216.655 61.597,216.593 61.765,215.263 C62.032,213.16 62.719,212.551 65.307,212.128 C67.232,211.812 67.779,211.923 68.324,212.738 C68.905,213.606 69.19,213.644 70.542,213.032 C72.538,212.129 73.568,212.591 74.238,214.692 C74.69,216.107 74.977,216.324 76.017,216.039 C76.703,215.851 77.597,216.005 78.015,216.385 C78.973,217.254 80.402,216.696 80.018,215.603 C79.624,214.481 82.615,212.821 84.23,213.264 C85.116,213.507 85.459,213.367 85.459,212.76 C85.459,211.684 87.561,211.103 89.7,211.587 C92.171,212.146 93.214,212.084 95.336,211.255 C96.722,210.712 97.183,210.251 96.992,209.596 C96.847,209.096 97.166,208.097 97.701,207.375 C98.643,206.104 98.714,206.093 100.022,207.03 C100.864,207.632 101.372,208.507 101.372,209.352 C101.372,211.008 102.283,211.759 102.733,210.476 C103.156,209.271 107.138,207.41 109.291,207.41 C110.212,207.41 112.279,206.916 113.885,206.312 C116.91,205.174 118.034,205.247 118.513,206.611 C118.92,207.769 119.479,207.611 121.65,205.727 C123.669,203.973 126.223,203.492 126.675,204.78 C126.818,205.186 126.829,206.132 126.7,206.884 C126.572,207.636 126.776,208.708 127.154,209.267 C127.795,210.214 127.958,210.128 129.519,208.005 C131.125,205.821 132.783,205.097 133.456,206.287 C133.631,206.596 133.471,206.856 133.102,206.866 C132.732,206.876 133.061,207.491 133.832,208.232 C135.589,209.923 139.401,210.626 141.759,209.694 C143.249,209.105 143.653,209.161 144.888,210.122 C146.169,211.119 146.441,211.147 147.714,210.418 C149.765,209.244 153.015,210.288 154.161,212.488 C154.632,213.393 155.223,214.135 155.474,214.137 C155.725,214.139 156.214,214.564 156.56,215.081 C157.108,215.9 157.397,215.928 158.788,215.298 C160.887,214.348 162.53,214.866 163.518,216.789 C164.169,218.058 164.657,218.338 166.135,218.293 C167.134,218.263 168.219,218.059 168.544,217.838 C168.87,217.619 170.118,217.593 171.317,217.783 C173.369,218.108 173.551,218.023 174.408,216.347 C175.204,214.788 175.512,214.609 176.883,214.909 C177.841,215.118 179.02,214.927 179.926,214.415 C180.738,213.956 182.117,213.58 182.99,213.58 C184.521,213.58 191.184,217.114 193.716,219.269 C194.389,219.842 195.429,220.313 196.026,220.315 C197.279,220.319 199.226,221.624 201.197,223.779 C202.24,224.92 202.533,225.729 202.409,227.125 C202.268,228.71 202.007,229.019 200.529,229.347 C199.585,229.556 198.558,230.006 198.245,230.348 C197.916,230.708 195.785,230.969 193.184,230.969 C190.713,230.969 187.361,231.348 185.735,231.811 C184.109,232.273 181.98,232.652 181.002,232.652 C180.025,232.652 178.777,233.094 178.23,233.634 C177.506,234.348 176.234,234.645 173.569,234.723 C165.402,234.964 158.695,235.735 158.475,236.459 C157.936,238.234 155.528,240.53 152.719,241.947 C149.574,243.534 149.167,244.425 151.582,244.44 C152.663,244.447 152.796,244.568 152.194,244.993 C151.77,245.293 150.331,245.383 148.994,245.194 C147.183,244.938 146.232,245.089 145.258,245.787 C144.039,246.659 144.004,246.804 144.736,247.946 C145.167,248.618 145.52,249.491 145.52,249.886 C145.52,251.02 144.176,250.719 143.379,249.406 C142.668,248.237 142.612,248.232 140.878,249.192 C139.902,249.732 137.805,251.395 136.219,252.887 C134.632,254.379 131.918,256.507 130.187,257.615 C126.702,259.848 126.246,260.981 128.607,261.547 C131.048,262.133 130.164,263.096 125.728,264.682 C120.193,266.66 119.339,267.989 119.339,274.632 C119.339,277.267 119.06,280.904 118.718,282.713 C118.272,285.068 118.252,286.272 118.644,286.954 C119.567,288.554 125.031,289.212 142.516,289.827 C159.057,290.408 166.102,291.129 175.572,293.211 C180.936,294.39 181.579,294.694 180.413,295.5 C179.389,296.208 174.922,296.067 169.648,295.16 z M119.527,261.714 C121.259,260.112 122.886,258.608 123.143,258.371 C123.4,258.134 122.652,256.895 121.475,255.608 C119.285,253.216 119.294,253.218 115.746,254.251 L114.463,254.625 L115.746,253.467 C117.642,251.757 120.177,251.363 121.413,252.586 C122.823,253.98 122.669,253.139 120.88,249.675 C120.032,248.035 119.339,246.335 119.339,245.898 C119.339,245.461 118.3,243.593 117.029,241.746 C115.759,239.899 114.719,238.102 114.719,237.752 C114.719,237.402 114.115,236.815 113.375,236.446 C112.181,235.852 111.919,235.93 111.015,237.16 C110.455,237.92 109.27,238.922 108.38,239.386 C106.322,240.461 105.919,242.534 107.625,243.27 C108.773,243.766 108.757,243.798 107.147,244.178 C106.23,244.395 105.479,244.74 105.479,244.945 C105.479,246.102 107.15,252.046 107.906,253.576 L108.793,255.37 L109.061,253.171 C109.516,249.437 110.613,249.996 110.613,253.962 C110.613,257.298 110.704,257.539 113.307,261.014 C114.79,262.992 116.087,264.614 116.19,264.619 C116.292,264.622 117.794,263.315 119.527,261.714 z M110.114,243.216 C110.083,242.43 112.094,237.806 112.623,237.449 C113.866,236.61 113.098,240.025 111.654,241.759 C110.816,242.766 110.122,243.422 110.114,243.216 z M128.887,254.66 C129.198,254.434 129.593,252.008 129.765,249.269 C130.133,243.434 129.475,241.04 127.142,239.722 C125.711,238.913 124.67,237.298 125.204,236.715 C125.337,236.57 126.066,236.984 126.825,237.636 C128.599,239.162 129.607,239.144 129.607,237.588 C129.607,236.629 129.743,236.504 130.222,237.027 C131.103,237.989 131.66,237.859 131.66,236.691 C131.66,235.515 128.852,234.222 126.293,234.222 C122.888,234.222 119.853,237.238 119.853,240.623 C119.853,241.335 121.252,244.165 122.963,246.912 C124.673,249.659 126.412,252.623 126.826,253.498 C127.612,255.159 127.947,255.347 128.887,254.66 z M134.428,250.519 C135.116,249.445 135.116,249.134 134.427,247.679 C132.994,244.651 131.044,246.722 131.884,250.379 C132.267,252.049 133.407,252.111 134.428,250.519 z M103.542,246.255 C103.889,240.958 101.69,238.131 97.143,238.03 C95.14,237.985 94.955,238.099 94.955,239.384 C94.955,240.84 95.315,240.941 97.779,240.181 L99.062,239.784 L97.65,241.437 C95.936,243.444 95.88,244.437 97.394,245.958 C98.863,247.434 101.961,249.476 102.737,249.479 C103.093,249.48 103.415,248.193 103.542,246.255 z M138.782,243.908 C141.109,240.51 141.008,239.845 137.948,238.447 C136.307,237.698 135.857,236.931 136.717,236.35 C136.958,236.187 138.054,236.555 139.153,237.167 C140.375,237.848 141.22,238.052 141.331,237.691 C141.833,236.045 138.199,234.389 135.631,235.093 C132.917,235.837 131.014,240.183 132.056,243.26 C132.443,244.403 135.7,247.286 136.358,247.067 C136.543,247.006 137.633,245.584 138.782,243.908 z M93.672,246.308 C93.672,245.505 91.011,242.188 90.366,242.188 C89.288,242.188 87.309,240.195 87.701,239.502 C87.939,239.081 88.658,239.326 89.908,240.253 C92.343,242.059 92.645,241.995 92.645,239.674 C92.645,238.045 92.427,237.662 91.324,237.359 C90.578,237.155 89.752,237.272 89.425,237.629 C89.107,237.977 88.2,238.261 87.409,238.261 C85.847,238.261 85.743,238.639 86.297,242.3 C86.595,244.27 86.772,244.431 89.756,245.466 C93.44,246.744 93.672,246.794 93.672,246.308 z M143.91,244.818 C145.269,243.796 147.17,242.638 148.132,242.244 C152.036,240.648 154.805,239.137 155.613,238.162 C156.082,237.596 156.371,237.058 156.255,236.967 C155.357,236.258 153.204,234.896 152.982,234.896 C152.831,234.896 152.707,235.392 152.707,235.999 C152.707,237.491 149.356,241.063 147.942,241.079 C145.336,241.107 140.9,244.358 140.9,246.239 C140.9,246.961 141.327,246.76 143.91,244.818 z M84.233,238.419 C84.086,238.258 83.371,238.29 82.643,238.49 L81.32,238.853 L82.748,240.906 L84.175,242.958 L84.338,240.834 C84.427,239.666 84.38,238.579 84.233,238.419 z M103.939,238.823 C103.939,238.048 103.597,237.701 102.833,237.701 C101.759,237.701 101.754,237.734 102.655,238.823 C103.166,239.44 103.664,239.944 103.762,239.944 C103.859,239.944 103.939,239.44 103.939,238.823 z M118.849,236.329 C117.784,234.926 116.773,235.276 116.773,237.046 C116.773,239.229 117.302,239.616 118.499,238.308 C119.343,237.385 119.401,237.055 118.849,236.329 z M149.428,237.403 C150.409,235.766 149.986,234.892 148.704,235.908 C148.223,236.289 147.191,236.928 146.41,237.328 C144.759,238.174 145.073,238.823 147.134,238.823 C148.111,238.823 148.851,238.364 149.428,237.403 z M144.637,236.999 C147.231,235.005 147.579,234.304 146.7,232.838 C145.897,231.499 144.137,230.609 143.557,231.249 C143.366,231.459 143.893,232.227 144.728,232.956 C146.047,234.108 146.129,234.33 145.35,234.657 C144.808,234.884 144.058,234.639 143.448,234.035 C142.46,233.059 142.44,233.091 142.44,235.65 C142.44,237.086 142.565,238.261 142.717,238.261 C142.87,238.261 143.734,237.694 144.637,236.999 z" fill="#373737" id="tree"/>
  </g>
</svg>
